<svg version="1.1" id="Layer_1" xmlns="http://www.w3.org/2000/svg" xmlns:xlink="http://www.w3.org/1999/xlink" x="0px" y="0px"
	 viewBox="0 0 120 120" enable-background="new 0 0 120 120" xml:space="preserve">
<g>
	<circle fill="#E8EBEC" cx="86.284" cy="67.369" r="14"/>
	<circle fill="#E8EBEC" cx="52.031" cy="32.885" r="12"/>
	<circle fill="#E8EBEC" cx="38.843" cy="78.196" r="20"/>
	<g>
		<path fill="#BDC3D8" d="M70.627,92.5H46.626c-11.045,0-20-8.954-20-20v-24c0-11.047,8.955-20,20-20h24.001
			c11.046,0,20,8.953,20,20v24C90.627,83.546,81.673,92.5,70.627,92.5z"/>
		<path fill="#FFFFFF" d="M61.626,92.5h-15c-11.045,0-20-8.954-20-20v-14c0-11.045,8.955-20,20-20h15c11.046,0,20,8.955,20,20v14
			C81.626,83.546,72.672,92.5,61.626,92.5z"/>
		<path fill="#21365F" d="M70.627,93.25H46.626c-11.441,0-20.75-9.309-20.75-20.75V48.499c0-11.441,9.309-20.75,20.75-20.75h24.001
			c11.441,0,20.75,9.309,20.75,20.75V72.5C91.377,83.942,82.069,93.25,70.627,93.25z M46.626,29.249
			c-10.614,0-19.25,8.636-19.25,19.25V72.5c0,10.614,8.636,19.25,19.25,19.25h24.001c10.614,0,19.25-8.636,19.25-19.25V48.499
			c0-10.614-8.636-19.25-19.25-19.25H46.626z"/>
		<path fill="#FFFFFF" d="M76.496,70.241l-6.72-1.16c-0.462-0.08-0.905-0.217-1.32-0.401H48.799
			c-0.416,0.185-0.858,0.321-1.32,0.401l-6.721,1.16c-4.121,0.713-7.131,4.287-7.131,8.469v8.972c3.497,2.998,8.032,4.819,13,4.819
			h24.001c4.967,0,9.502-1.821,12.999-4.819v-8.972C83.627,74.528,80.617,70.953,76.496,70.241z"/>
		<path fill="#BDC3D8" d="M83.627,78.709c0-4.182-3.01-7.756-7.131-8.469l-6.72-1.16c-0.462-0.08-0.905-0.217-1.32-0.401H48.799
			c-0.416,0.185-0.858,0.321-1.32,0.401l-6.721,1.16c-4.121,0.713-7.131,4.287-7.131,8.469v1.287
			c5.282-4.951,15.45-6.23,31.064-6.23c16.058,0,14.714,5.345,14.466,16.813c1.62-0.769,3.124-1.743,4.47-2.898V78.709z"/>
		<path fill="#21365F" d="M70.627,93.25H46.626c-4.937,0-9.727-1.775-13.488-5c-0.166-0.143-0.262-0.351-0.262-0.569v-8.972
			c0-4.559,3.261-8.432,7.753-9.208l6.721-1.161c0.393-0.066,0.778-0.184,1.142-0.347c0.096-0.043,0.2-0.065,0.306-0.065h19.656
			c0.105,0,0.21,0.022,0.306,0.065c0.364,0.163,0.749,0.28,1.142,0.347l6.721,1.161h0c4.492,0.776,7.753,4.649,7.753,9.208v8.972
			c0,0.219-0.096,0.427-0.262,0.569C80.354,91.475,75.564,93.25,70.627,93.25z M34.377,87.332c3.448,2.851,7.784,4.418,12.25,4.418
			h24.001c4.465,0,8.801-1.566,12.249-4.418v-8.623c0-3.827-2.737-7.078-6.508-7.729l-6.721-1.161
			c-0.462-0.079-0.914-0.211-1.347-0.391H48.953c-0.433,0.18-0.885,0.312-1.347,0.391l-6.721,1.161
			c-3.771,0.651-6.508,3.902-6.508,7.729V87.332z"/>
		<path fill="#FFFFFF" d="M52.632,61.891l-0.7,3.062c-0.424,1.68-1.596,3.039-3.133,3.726l5.516,2.638
			c2.73,1.307,5.904,1.306,8.634-0.001l5.506-2.637c-1.538-0.687-2.709-2.046-3.133-3.726l-0.7-3.062H52.632z"/>
		<path fill="#BDC3D8" d="M61.551,67.147c0.376,1.491,1.23,2.772,2.379,3.699l4.525-2.167c-1.538-0.687-2.709-2.046-3.133-3.726
			l-0.7-3.062l-3.943,1.441L61.551,67.147z"/>
		<path fill="#21365F" d="M58.63,73.051c-1.582,0-3.165-0.352-4.639-1.057l-5.516-2.639c-0.264-0.127-0.43-0.395-0.426-0.688
			c0.004-0.292,0.178-0.556,0.445-0.675c1.359-0.606,2.347-1.781,2.711-3.225l0.696-3.045c0.078-0.341,0.381-0.583,0.731-0.583
			h11.989c0.35,0,0.653,0.242,0.731,0.582l0.701,3.062c0.36,1.427,1.349,2.602,2.707,3.208c0.267,0.119,0.441,0.382,0.445,0.675
			s-0.163,0.561-0.426,0.687l-5.506,2.637C61.797,72.698,60.214,73.051,58.63,73.051z M50.382,68.605l4.256,2.036
			c2.537,1.213,5.448,1.213,7.986-0.002l4.247-2.033c-1.119-0.856-1.923-2.066-2.277-3.47l-0.571-2.495H53.23l-0.567,2.478
			C52.307,66.535,51.501,67.748,50.382,68.605z"/>
		<path fill="#FFFFFF" d="M70.346,49.699c0,7.984-5.247,14.457-11.719,14.457s-11.719-6.473-11.719-14.457S52.155,37.5,58.627,37.5
			S70.346,41.714,70.346,49.699z"/>
		<path fill="#BDC3D8" d="M70.346,49.699c0-7.984-5.247-12.198-11.719-12.198c-4.072,0-7.657,1.672-9.757,4.897
			c1.911-1.251,4.238-1.897,6.756-1.897c6.472,0,11.719,4.215,11.719,12.199c0,3.682-1.124,7.031-2.961,9.583
			C67.94,59.801,70.346,55.1,70.346,49.699z"/>
		<path fill="#21365F" d="M58.627,64.906c-6.875,0-12.469-6.821-12.469-15.207c0-7.745,5.011-12.948,12.469-12.948
			s12.469,5.203,12.469,12.948C71.096,58.084,65.502,64.906,58.627,64.906z M58.627,38.25c-6.663,0-10.969,4.494-10.969,11.448
			c0,7.558,4.92,13.707,10.969,13.707s10.969-6.149,10.969-13.707C69.596,42.744,65.29,38.25,58.627,38.25z"/>
		<path fill="#21365F" d="M73.861,92.988c-0.414,0-0.75-0.336-0.75-0.75V80.33c0-0.414,0.336-0.75,0.75-0.75s0.75,0.336,0.75,0.75
			v11.907C74.611,92.652,74.275,92.988,73.861,92.988z"/>
		<path fill="#21365F" d="M43.392,92.99c-0.414,0-0.75-0.336-0.75-0.75V80.33c0-0.414,0.336-0.75,0.75-0.75
			c0.414,0,0.75,0.336,0.75,0.75V92.24C44.142,92.654,43.807,92.99,43.392,92.99z"/>
		<path fill="#FFFFFF" d="M68.455,68.679l-4.188,7.54c-0.771,1.389-1.201,2.939-1.253,4.527L62.627,92.5h-8.001L54.24,80.746
			c-0.052-1.588-0.482-3.139-1.253-4.527l-4.189-7.54l5.516,2.638c2.73,1.307,5.904,1.306,8.634-0.001L68.455,68.679z"/>
		<path fill="#BDC3D8" d="M63.315,78.668c0.211-0.852,0.522-1.678,0.952-2.449l4.188-7.54l-5.506,2.637
			c-2.729,1.307-5.904,1.308-8.634,0.001l-5.516-2.638l4.189,7.54c0.148,0.268,0.273,0.545,0.396,0.824
			C53.785,77.024,54.186,77,54.596,77C57.788,77,60.764,77.617,63.315,78.668z"/>
		<path fill="#21365F" d="M62.627,93.25h-8.001c-0.405,0-0.736-0.32-0.75-0.726L53.491,80.77c-0.048-1.461-0.449-2.908-1.159-4.188
			l-4.189-7.539c-0.158-0.285-0.114-0.641,0.109-0.879c0.225-0.238,0.575-0.303,0.87-0.162l5.516,2.639
			c2.537,1.213,5.448,1.213,7.986-0.002l5.506-2.637c0.294-0.143,0.645-0.076,0.87,0.162c0.224,0.238,0.268,0.593,0.11,0.879
			l-4.188,7.539c-0.71,1.279-1.111,2.726-1.159,4.188l-0.386,11.754C63.364,92.93,63.032,93.25,62.627,93.25z M55.352,91.75h6.55
			l0.362-11.029c0.056-1.697,0.521-3.381,1.347-4.867l3.046-5.483l-3.384,1.62c-2.948,1.412-6.331,1.413-9.281,0.003l-3.395-1.625
			l3.047,5.484c0.825,1.486,1.291,3.17,1.347,4.867L55.352,91.75z"/>
		<path fill="#FFFFFF" d="M56.257,46.653c0,0,4.904-4.604,13.764-0.152c-1.22-5.9-5.853-9-11.394-9
			c-5.54,0-10.169,3.097-11.392,8.992C48.423,45.934,52.735,44.209,56.257,46.653z"/>
		<path fill="#BDC3D8" d="M63.032,44.572c1.943,0.058,4.279,0.566,6.989,1.929c-1.22-5.9-5.853-9-11.394-9
			c-1.848,0-3.59,0.354-5.143,1.031C57.654,38.779,61.211,40.834,63.032,44.572z"/>
		<path fill="#21365F" d="M56.257,47.403c-0.149,0-0.298-0.043-0.428-0.133c-3.176-2.205-7.137-0.633-8.276-0.099
			c-0.256,0.121-0.561,0.087-0.784-0.09c-0.223-0.177-0.327-0.463-0.27-0.741c1.227-5.915,5.874-9.59,12.127-9.59
			c6.257,0,10.904,3.678,12.128,9.598c0.058,0.281-0.05,0.572-0.278,0.747c-0.228,0.175-0.536,0.204-0.793,0.075
			c-8.295-4.168-12.869-0.013-12.914,0.029C56.627,47.334,56.442,47.403,56.257,47.403z M52.005,44.629
			c1.356,0,2.818,0.282,4.204,1.102c1.38-1.006,5.753-3.458,12.67-0.581c-1.486-4.351-5.219-6.9-10.251-6.9
			c-5.071,0-8.822,2.588-10.286,7C49.314,44.931,50.603,44.629,52.005,44.629z"/>
		<path fill="#21365F" d="M39.776,63.039h-1.385c-0.414,0-0.75-0.336-0.75-0.75s0.336-0.75,0.75-0.75h1.385
			c0.414,0,0.75,0.336,0.75,0.75S40.19,63.039,39.776,63.039z"/>
		<path fill="#21365F" d="M44.391,63.039h-1.384c-0.414,0-0.75-0.336-0.75-0.75s0.336-0.75,0.75-0.75h1.384
			c0.414,0,0.75,0.336,0.75,0.75S44.805,63.039,44.391,63.039z"/>
		<path fill="#21365F" d="M41.391,66.039c-0.414,0-0.75-0.336-0.75-0.75v-1.385c0-0.414,0.336-0.75,0.75-0.75
			c0.414,0,0.75,0.336,0.75,0.75v1.385C42.141,65.703,41.805,66.039,41.391,66.039z"/>
		<path fill="#21365F" d="M41.391,61.424c-0.414,0-0.75-0.336-0.75-0.75v-1.385c0-0.414,0.336-0.75,0.75-0.75
			c0.414,0,0.75,0.336,0.75,0.75v1.385C42.141,61.088,41.805,61.424,41.391,61.424z"/>
		<path fill="#21365F" d="M77.901,59.039h-1.384c-0.414,0-0.75-0.336-0.75-0.75s0.336-0.75,0.75-0.75h1.384
			c0.414,0,0.75,0.336,0.75,0.75S78.315,59.039,77.901,59.039z"/>
		<path fill="#21365F" d="M82.517,59.039h-1.385c-0.414,0-0.75-0.336-0.75-0.75s0.336-0.75,0.75-0.75h1.385
			c0.414,0,0.75,0.336,0.75,0.75S82.931,59.039,82.517,59.039z"/>
		<path fill="#21365F" d="M79.517,62.039c-0.414,0-0.75-0.336-0.75-0.75v-1.384c0-0.414,0.336-0.75,0.75-0.75
			c0.414,0,0.75,0.336,0.75,0.75v1.384C80.267,61.703,79.931,62.039,79.517,62.039z"/>
		<path fill="#21365F" d="M79.517,57.424c-0.414,0-0.75-0.336-0.75-0.75v-1.385c0-0.414,0.336-0.75,0.75-0.75
			c0.414,0,0.75,0.336,0.75,0.75v1.385C80.267,57.088,79.931,57.424,79.517,57.424z"/>
		<path fill="#21365F" d="M33.468,49.578h-1.384c-0.414,0-0.75-0.336-0.75-0.75c0-0.414,0.336-0.75,0.75-0.75h1.384
			c0.414,0,0.75,0.336,0.75,0.75C34.218,49.242,33.882,49.578,33.468,49.578z"/>
		<path fill="#21365F" d="M38.083,49.578h-1.384c-0.414,0-0.75-0.336-0.75-0.75c0-0.414,0.336-0.75,0.75-0.75h1.384
			c0.414,0,0.75,0.336,0.75,0.75C38.833,49.242,38.497,49.578,38.083,49.578z"/>
		<path fill="#21365F" d="M35.083,52.578c-0.414,0-0.75-0.336-0.75-0.75v-1.385c0-0.414,0.336-0.75,0.75-0.75
			c0.414,0,0.75,0.336,0.75,0.75v1.385C35.833,52.242,35.497,52.578,35.083,52.578z"/>
		<path fill="#21365F" d="M35.083,47.963c-0.414,0-0.75-0.336-0.75-0.75v-1.385c0-0.414,0.336-0.75,0.75-0.75
			c0.414,0,0.75,0.336,0.75,0.75v1.385C35.833,47.627,35.497,47.963,35.083,47.963z"/>
	</g>
</g>
</svg>
