<?xml version="1.0" encoding="utf-8"?>
<!-- Generator: Adobe Illustrator 24.3.0, SVG Export Plug-In . SVG Version: 6.00 Build 0)  -->
<svg version="1.1" id="Layer_1" xmlns="http://www.w3.org/2000/svg" xmlns:xlink="http://www.w3.org/1999/xlink" x="0px" y="0px"
	 viewBox="0 0 120 120" enable-background="new 0 0 120 120" xml:space="preserve">
<g>
	<circle fill="#E8EBEC" cx="69.215" cy="84.774" r="14"/>
	<circle fill="#E8EBEC" cx="31.561" cy="51.77" r="12"/>
	<circle fill="#E8EBEC" cx="79.566" cy="40.307" r="20"/>
	<g>
		<path fill="#BDC3D8" d="M72.874,90.731H48.873c-11.045,0-20-8.954-20-20v-24c0-11.047,8.955-20,20-20h24.001
			c11.046,0,20,8.953,20,20v24C92.874,81.777,83.92,90.731,72.874,90.731z"/>
		<path fill="#FFFFFF" d="M63.873,90.731h-15c-11.045,0-20-8.954-20-20v-14c0-11.045,8.955-20,20-20h15c11.046,0,20,8.955,20,20v14
			C83.873,81.777,74.919,90.731,63.873,90.731z"/>
		<path fill="#21365F" d="M72.874,91.481H48.873c-11.441,0-20.75-9.309-20.75-20.75V46.73c0-11.441,9.309-20.75,20.75-20.75h24.001
			c11.441,0,20.75,9.309,20.75,20.75v24.001C93.624,82.172,84.315,91.481,72.874,91.481z M48.873,27.48
			c-10.614,0-19.25,8.636-19.25,19.25v24.001c0,10.614,8.636,19.25,19.25,19.25h24.001c10.614,0,19.25-8.636,19.25-19.25V46.73
			c0-10.614-8.636-19.25-19.25-19.25H48.873z"/>
		<path fill="#FFFFFF" d="M41.781,55.569c0,11.598,6.558,21,19,21s19-9.402,19-21c0-11.598-6.558-20.838-19-20.838
			S41.781,43.971,41.781,55.569z"/>
		<path fill="#BDC3D8" d="M58.78,39.731c12.442,0,19,9.24,19,20.838c0,2.467-0.315,4.824-0.902,7.023
			c1.914-3.408,2.902-7.548,2.902-12.023c0-11.598-6.558-20.838-19-20.838c-9.821,0-15.958,5.768-18.116,13.897
			C45.708,43.237,51.126,39.731,58.78,39.731z"/>
		<path fill="#21365F" d="M60.781,77.318c-11.998,0-19.75-8.537-19.75-21.749c0-13.114,7.752-21.588,19.75-21.588
			c11.998,0,19.75,8.474,19.75,21.588C80.531,68.781,72.778,77.318,60.781,77.318z M60.781,35.481
			c-11.086,0-18.25,7.885-18.25,20.088c0,12.301,7.164,20.249,18.25,20.249c11.087,0,18.25-7.948,18.25-20.249
			C79.031,43.366,71.867,35.481,60.781,35.481z"/>
		<path fill="#FFFFFF" d="M76.483,70.912l-5-0.864c-0.444-0.076-0.869-0.207-1.268-0.386h-18.87
			c-0.399,0.179-0.824,0.31-1.268,0.386l-5,0.864c-4.795,0.828-8.298,4.987-8.298,9.854v5.869c3.361,2.559,7.543,4.096,12.093,4.096
			h24.001c4.467,0,8.578-1.482,11.906-3.957v-6.008C84.78,75.9,81.278,71.741,76.483,70.912z"/>
		<path fill="#BDC3D8" d="M84.78,80.766c0-4.866-3.502-9.025-8.297-9.854l-5-0.864c-0.444-0.076-0.869-0.207-1.268-0.386h-18.87
			c-0.399,0.179-0.824,0.31-1.268,0.386l-5,0.864c-3.911,0.676-6.961,3.567-7.953,7.252c6.604-2.658,16.834-4.084,29.656-4.084
			c13.019,0,13.957,4.186,13.998,15.009c1.426-0.62,2.768-1.398,4.001-2.315V80.766z"/>
		<path fill="#21365F" d="M72.874,91.481H48.873c-4.558,0-8.896-1.469-12.547-4.25c-0.186-0.142-0.295-0.361-0.295-0.596v-5.869
			c0-5.245,3.751-9.7,8.92-10.594l5-0.863c0.376-0.064,0.743-0.176,1.089-0.331c0.096-0.043,0.2-0.065,0.306-0.065h18.87
			c0.105,0,0.209,0.022,0.306,0.065c0.346,0.155,0.713,0.267,1.09,0.331l4.999,0.863c5.169,0.894,8.92,5.349,8.92,10.594v6.008
			c0,0.237-0.112,0.461-0.303,0.602C81.615,90.061,77.343,91.481,72.874,91.481z M37.531,86.258
			c3.325,2.438,7.238,3.723,11.342,3.723h24.001c4.021,0,7.87-1.239,11.157-3.588v-5.627c0-4.514-3.228-8.347-7.675-9.115h0
			l-5-0.863c-0.445-0.077-0.88-0.203-1.294-0.375H51.5c-0.415,0.172-0.85,0.298-1.294,0.375l-5,0.863
			c-4.448,0.769-7.676,4.602-7.676,9.115V86.258z M84.781,86.774h0.01H84.781z"/>
		<path fill="#FFFFFF" d="M55.026,63.42l-0.672,2.666c-0.407,1.613-1.532,2.919-3.008,3.576l9.44,11.268l9.43-11.268
			c-1.476-0.657-2.601-1.963-3.008-3.576l-0.672-2.666H55.026z"/>
		<path fill="#BDC3D8" d="M66.969,73.541l3.247-3.879c-1.476-0.658-2.601-1.963-3.008-3.576l-0.672-2.666h-4.414l1.55,6.08
			C64.124,71.297,65.353,72.758,66.969,73.541z"/>
		<path fill="#21365F" d="M60.786,81.679c-0.222,0-0.432-0.099-0.575-0.269l-9.44-11.266c-0.151-0.181-0.209-0.422-0.156-0.65
			c0.053-0.229,0.21-0.421,0.425-0.517c1.297-0.578,2.239-1.699,2.586-3.075l0.672-2.666c0.084-0.333,0.383-0.566,0.727-0.566
			h11.509c0.344,0,0.643,0.233,0.727,0.566l0.672,2.666c0.348,1.377,1.29,2.498,2.586,3.075c0.215,0.096,0.372,0.287,0.425,0.517
			c0.053,0.229-0.005,0.469-0.156,0.65l-9.43,11.266C61.218,81.58,61.008,81.679,60.786,81.679z M52.508,69.882l8.277,9.879
			l8.269-9.879c-1.275-0.831-2.193-2.106-2.573-3.612l-0.53-2.1H55.61l-0.53,2.1C54.701,67.776,53.783,69.051,52.508,69.882z"/>
		<path fill="#FFFFFF" d="M72.406,51.268c0,8.082-5.205,15.634-11.625,15.634c-6.42,0-11.625-7.552-11.625-15.634
			c0-8.082,11.625-3.865,11.625-3.865S72.406,43.186,72.406,51.268z"/>
		<path fill="#BDC3D8" d="M64.614,46.473c2.095,0.419,3.791,1.709,3.791,4.795c0,7.221-4.16,14.003-9.625,15.369
			c0.651,0.162,1.317,0.265,2,0.265c6.421,0,11.625-7.552,11.625-15.634C72.405,46.291,68.001,45.979,64.614,46.473z"/>
		<path fill="#21365F" d="M60.781,67.651c-6.592,0-12.375-7.655-12.375-16.383c0-2.078,0.703-3.623,2.088-4.595
			c3.189-2.235,8.984-0.498,10.287-0.064c1.304-0.434,7.098-2.171,10.287,0.064c1.385,0.972,2.088,2.517,2.088,4.595
			C73.156,59.995,67.373,67.651,60.781,67.651z M54.767,47.045c-1.271,0-2.506,0.219-3.414,0.857
			c-0.974,0.684-1.447,1.783-1.447,3.365c0,7.928,5.082,14.883,10.875,14.883c5.793,0,10.875-6.955,10.875-14.883
			c0-1.582-0.474-2.682-1.447-3.365c-2.893-2.029-9.11,0.182-9.172,0.205c-0.165,0.059-0.346,0.059-0.511,0
			C60.482,48.092,57.543,47.045,54.767,47.045z"/>
		<path fill="#21365F" d="M74.782,91.387c-0.414,0-0.75-0.336-0.75-0.75v-7.958c0-0.414,0.336-0.75,0.75-0.75s0.75,0.336,0.75,0.75
			v7.958C75.532,91.051,75.196,91.387,74.782,91.387z"/>
		<path fill="#21365F" d="M46.779,91.369c-0.414,0-0.75-0.336-0.75-0.75v-7.94c0-0.414,0.336-0.75,0.75-0.75
			c0.414,0,0.75,0.336,0.75,0.75v7.94C47.529,91.034,47.193,91.369,46.779,91.369z"/>
		<polygon fill="#BDC3D8" points="51.346,69.662 48.992,76.163 60.786,80.93 		"/>
		<polygon fill="#FFFFFF" points="51.346,69.662 48.992,76.163 54.523,78.399 		"/>
		<path fill="#21365F" d="M60.786,81.679c-0.094,0-0.189-0.018-0.281-0.055L48.71,76.858c-0.374-0.15-0.562-0.57-0.424-0.95
			l2.354-6.5c0.091-0.253,0.311-0.437,0.575-0.483c0.263-0.045,0.533,0.052,0.705,0.258l9.44,11.266
			c0.221,0.264,0.234,0.645,0.032,0.922C61.247,81.569,61.02,81.679,60.786,81.679z M49.943,75.739l8.338,3.369l-6.674-7.965
			L49.943,75.739z"/>
		<polygon fill="#BDC3D8" points="70.313,69.662 72.667,76.163 60.873,80.93 		"/>
		<polygon fill="#FFFFFF" points="70.313,69.662 69.08,77.613 60.873,80.93 		"/>
		<path fill="#21365F" d="M60.874,81.679c-0.235,0-0.462-0.11-0.607-0.31c-0.203-0.277-0.189-0.658,0.032-0.922l9.44-11.266
			c0.172-0.206,0.441-0.303,0.705-0.258c0.264,0.047,0.483,0.23,0.575,0.483l2.354,6.5c0.138,0.38-0.05,0.8-0.424,0.95
			l-11.794,4.767C61.063,81.661,60.968,81.679,60.874,81.679z M70.052,71.143l-6.674,7.965l8.338-3.369L70.052,71.143z"/>
		<path fill="#21365F" d="M60.873,91.369c-0.414,0-0.75-0.336-0.75-0.75v-9.69c0-0.414,0.336-0.75,0.75-0.75
			c0.414,0,0.75,0.336,0.75,0.75v9.69C61.623,91.034,61.288,91.369,60.873,91.369z"/>
		<path fill="#21365F" d="M34.344,67.651H32.96c-0.414,0-0.75-0.336-0.75-0.75c0-0.414,0.336-0.75,0.75-0.75h1.384
			c0.414,0,0.75,0.336,0.75,0.75C35.094,67.315,34.758,67.651,34.344,67.651z"/>
		<path fill="#21365F" d="M38.96,67.651h-1.385c-0.414,0-0.75-0.336-0.75-0.75c0-0.414,0.336-0.75,0.75-0.75h1.385
			c0.414,0,0.75,0.336,0.75,0.75C39.71,67.315,39.374,67.651,38.96,67.651z"/>
		<path fill="#21365F" d="M35.96,70.651c-0.414,0-0.75-0.336-0.75-0.75v-1.384c0-0.414,0.336-0.75,0.75-0.75
			c0.414,0,0.75,0.336,0.75,0.75v1.384C36.71,70.315,36.374,70.651,35.96,70.651z"/>
		<path fill="#21365F" d="M35.96,66.035c-0.414,0-0.75-0.336-0.75-0.75v-1.385c0-0.414,0.336-0.75,0.75-0.75
			c0.414,0,0.75,0.336,0.75,0.75v1.385C36.71,65.7,36.374,66.035,35.96,66.035z"/>
		<path fill="#21365F" d="M38.96,38.481h-1.385c-0.414,0-0.75-0.336-0.75-0.75c0-0.414,0.336-0.75,0.75-0.75h1.385
			c0.414,0,0.75,0.336,0.75,0.75C39.71,38.145,39.374,38.481,38.96,38.481z"/>
		<path fill="#21365F" d="M43.575,38.481h-1.384c-0.414,0-0.75-0.336-0.75-0.75c0-0.414,0.336-0.75,0.75-0.75h1.384
			c0.414,0,0.75,0.336,0.75,0.75C44.325,38.145,43.989,38.481,43.575,38.481z"/>
		<path fill="#21365F" d="M40.575,41.481c-0.414,0-0.75-0.336-0.75-0.75v-1.385c0-0.414,0.336-0.75,0.75-0.75
			c0.414,0,0.75,0.336,0.75,0.75v1.385C41.325,41.145,40.989,41.481,40.575,41.481z"/>
		<path fill="#21365F" d="M40.575,36.866c-0.414,0-0.75-0.336-0.75-0.75v-1.385c0-0.414,0.336-0.75,0.75-0.75
			c0.414,0,0.75,0.336,0.75,0.75v1.385C41.325,36.53,40.989,36.866,40.575,36.866z"/>
		<path fill="#21365F" d="M85.053,55.871h-1.384c-0.414,0-0.75-0.336-0.75-0.75c0-0.414,0.336-0.75,0.75-0.75h1.384
			c0.414,0,0.75,0.336,0.75,0.75C85.803,55.535,85.467,55.871,85.053,55.871z"/>
		<path fill="#21365F" d="M89.668,55.871h-1.385c-0.414,0-0.75-0.336-0.75-0.75c0-0.414,0.336-0.75,0.75-0.75h1.385
			c0.414,0,0.75,0.336,0.75,0.75C90.418,55.535,90.082,55.871,89.668,55.871z"/>
		<path fill="#21365F" d="M86.668,58.871c-0.414,0-0.75-0.336-0.75-0.75v-1.385c0-0.414,0.336-0.75,0.75-0.75
			c0.414,0,0.75,0.336,0.75,0.75v1.385C87.418,58.535,87.082,58.871,86.668,58.871z"/>
		<path fill="#21365F" d="M86.668,54.256c-0.414,0-0.75-0.336-0.75-0.75v-1.385c0-0.414,0.336-0.75,0.75-0.75
			c0.414,0,0.75,0.336,0.75,0.75v1.385C87.418,53.92,87.082,54.256,86.668,54.256z"/>
	</g>
</g>
</svg>
